<svg
  id="f742e200-228d-4a1c-a42b-6b0e75329b15"
  xmlns="http://www.w3.org/2000/svg"
  viewBox="0 0 24 24"
  width="24"
  height="24"
>
  <path
    fill="#FFFFFF"
    d="M9.154 11.603a1.763 1.763 0 0 0 1.439-1.962 1.763 1.763 0 0 0-1.439-1.962 1.763 1.763 0 0 0-1.439 1.962 1.763 1.763 0 0 0 1.439 1.962zM5.95 12.965c-.026-.307-.131 5.218 6.063 5.551 6.066-.25 6.066-5.551 6.066-5.551a30.1 30.1 0 0 1-12.129 0zm11.363 1.108s-.669 1.959-5.051 1.959c-3.505 0-5.388-1.164-5.607-1.959 3.528.593 7.13.593 10.658 0zM11.805 1.011C5.791 1.044.942 5.946.974 11.96c0 .089.002.179.005.268-.053 5.893 4.68 10.713 10.573 10.766.149.001.299 0 .448-.005 5.89.194 10.822-4.423 11.016-10.313a9.56 9.56 0 0 0 .005-.448c.001-6.194-5.02-11.216-11.214-11.217h-.002zm.196 20.343a9.082 9.082 0 0 1-9.381-9.159c-.154-5.117 3.87-9.39 8.988-9.544.076-.002.152-.004.227-.004a9.548 9.548 0 0 1 9.548 9.548 9.085 9.085 0 0 1-9.382 9.159zm3.108-9.751a1.763 1.763 0 0 0 1.439-1.962 1.763 1.763 0 0 0-1.439-1.962 1.763 1.763 0 0 0-1.439 1.962 1.763 1.763 0 0 0 1.439 1.962z"
  ></path>
</svg>
